<svg xmlns="http://www.w3.org/2000/svg" viewBox="0 0 28 28" width="28" height="28" role="img" aria-label="soulkiller">
<rect x="0.5" y="0.5" width="27" height="27" fill="#010101" stroke="#4A1219"/>
<g shape-rendering="crispEdges">
<rect x="6" y="1" width="1" height="1" fill="#FF2D3F" opacity="0.18"/>
<rect x="8" y="1" width="1" height="1" fill="#FF2D3F" opacity="0.18"/>
<rect x="9" y="1" width="1" height="1" fill="#FF2D3F" opacity="0.18"/>
<rect x="7" y="2" width="1" height="1" fill="#FF2D3F" opacity="0.18"/>
<rect x="8" y="2" width="1" height="1" fill="#FF2D3F" opacity="0.18"/>
<rect x="9" y="2" width="1" height="1" fill="#FF2D3F" opacity="0.18"/>
<rect x="10" y="2" width="1" height="1" fill="#FF2D3F" opacity="0.18"/>
<rect x="8" y="4" width="1" height="1" fill="#FF2D3F" opacity="0.18"/>
<rect x="9" y="4" width="1" height="1" fill="#FF2D3F" opacity="0.18"/>
<rect x="10" y="4" width="1" height="1" fill="#FF2D3F" opacity="0.36"/>
<rect x="11" y="4" width="1" height="1" fill="#FF2D3F" opacity="0.36"/>
<rect x="12" y="4" width="1" height="1" fill="#FF2D3F" opacity="0.36"/>
<rect x="13" y="4" width="1" height="1" fill="#FF2D3F" opacity="0.18"/>
<rect x="5" y="5" width="1" height="1" fill="#FF2D3F" opacity="0.18"/>
<rect x="6" y="5" width="1" height="1" fill="#FF2D3F" opacity="0.58"/>
<rect x="7" y="5" width="1" height="1" fill="#FF2D3F" opacity="0.82"/>
<rect x="8" y="5" width="1" height="1" fill="#FF7F8A"/>
<rect x="9" y="5" width="1" height="1" fill="#FF7F8A"/>
<rect x="10" y="5" width="1" height="1" fill="#FF7F8A"/>
<rect x="11" y="5" width="1" height="1" fill="#FF7F8A"/>
<rect x="12" y="5" width="1" height="1" fill="#FF7F8A"/>
<rect x="13" y="5" width="1" height="1" fill="#FF2D3F" opacity="0.82"/>
<rect x="14" y="5" width="1" height="1" fill="#FF2D3F" opacity="0.36"/>
<rect x="4" y="6" width="1" height="1" fill="#FF2D3F" opacity="0.58"/>
<rect x="5" y="6" width="1" height="1" fill="#FF2D3F" opacity="0.82"/>
<rect x="6" y="6" width="1" height="1" fill="#FF7F8A"/>
<rect x="7" y="6" width="1" height="1" fill="#FF7F8A"/>
<rect x="8" y="6" width="1" height="1" fill="#FF7F8A"/>
<rect x="9" y="6" width="1" height="1" fill="#FF7F8A"/>
<rect x="10" y="6" width="1" height="1" fill="#FF7F8A"/>
<rect x="11" y="6" width="1" height="1" fill="#FF7F8A"/>
<rect x="12" y="6" width="1" height="1" fill="#FF7F8A"/>
<rect x="13" y="6" width="1" height="1" fill="#FF7F8A"/>
<rect x="14" y="6" width="1" height="1" fill="#FF2D3F" opacity="0.82"/>
<rect x="3" y="7" width="1" height="1" fill="#FF2D3F" opacity="0.36"/>
<rect x="4" y="7" width="1" height="1" fill="#FF2D3F" opacity="0.82"/>
<rect x="5" y="7" width="1" height="1" fill="#FF7F8A"/>
<rect x="6" y="7" width="1" height="1" fill="#FF7F8A"/>
<rect x="7" y="7" width="1" height="1" fill="#FF7F8A"/>
<rect x="8" y="7" width="1" height="1" fill="#FF7F8A"/>
<rect x="9" y="7" width="1" height="1" fill="#FF7F8A"/>
<rect x="10" y="7" width="1" height="1" fill="#FF7F8A"/>
<rect x="11" y="7" width="1" height="1" fill="#FF7F8A"/>
<rect x="12" y="7" width="1" height="1" fill="#FF7F8A"/>
<rect x="13" y="7" width="1" height="1" fill="#FF7F8A"/>
<rect x="15" y="7" width="1" height="1" fill="#FF2D3F" opacity="0.58"/>
<rect x="3" y="8" width="1" height="1" fill="#FF2D3F" opacity="0.58"/>
<rect x="4" y="8" width="1" height="1" fill="#FF2D3F" opacity="0.82"/>
<rect x="5" y="8" width="1" height="1" fill="#FF2D3F" opacity="0.82"/>
<rect x="6" y="8" width="1" height="1" fill="#FF7F8A"/>
<rect x="7" y="8" width="1" height="1" fill="#FF7F8A"/>
<rect x="8" y="8" width="1" height="1" fill="#FF7F8A"/>
<rect x="9" y="8" width="1" height="1" fill="#FF7F8A"/>
<rect x="10" y="8" width="1" height="1" fill="#FF7F8A"/>
<rect x="11" y="8" width="1" height="1" fill="#FF7F8A"/>
<rect x="12" y="8" width="1" height="1" fill="#FF7F8A"/>
<rect x="13" y="8" width="1" height="1" fill="#FF7F8A"/>
<rect x="14" y="8" width="1" height="1" fill="#FF2D3F" opacity="0.82"/>
<rect x="16" y="8" width="1" height="1" fill="#FF2D3F" opacity="0.36"/>
<rect x="3" y="9" width="1" height="1" fill="#FF2D3F" opacity="0.58"/>
<rect x="4" y="9" width="1" height="1" fill="#FF2D3F" opacity="0.82"/>
<rect x="5" y="9" width="1" height="1" fill="#FF7F8A"/>
<rect x="6" y="9" width="1" height="1" fill="#FF7F8A"/>
<rect x="7" y="9" width="1" height="1" fill="#FF7F8A"/>
<rect x="8" y="9" width="1" height="1" fill="#FF7F8A"/>
<rect x="9" y="9" width="1" height="1" fill="#FF7F8A"/>
<rect x="10" y="9" width="1" height="1" fill="#FF7F8A"/>
<rect x="11" y="9" width="1" height="1" fill="#FF7F8A"/>
<rect x="12" y="9" width="1" height="1" fill="#FF7F8A"/>
<rect x="13" y="9" width="1" height="1" fill="#FF7F8A"/>
<rect x="14" y="9" width="1" height="1" fill="#FF7F8A"/>
<rect x="15" y="9" width="1" height="1" fill="#FF2D3F" opacity="0.82"/>
<rect x="3" y="10" width="1" height="1" fill="#FF2D3F" opacity="0.58"/>
<rect x="4" y="10" width="1" height="1" fill="#FF2D3F" opacity="0.82"/>
<rect x="5" y="10" width="1" height="1" fill="#FF7F8A"/>
<rect x="6" y="10" width="1" height="1" fill="#FF7F8A"/>
<rect x="7" y="10" width="1" height="1" fill="#FF7F8A"/>
<rect x="8" y="10" width="1" height="1" fill="#FF7F8A"/>
<rect x="9" y="10" width="1" height="1" fill="#FF7F8A"/>
<rect x="10" y="10" width="1" height="1" fill="#FF7F8A"/>
<rect x="11" y="10" width="1" height="1" fill="#FF7F8A"/>
<rect x="12" y="10" width="1" height="1" fill="#FF2D3F" opacity="0.82"/>
<rect x="13" y="10" width="1" height="1" fill="#FF2D3F" opacity="0.82"/>
<rect x="14" y="10" width="1" height="1" fill="#FF2D3F" opacity="0.82"/>
<rect x="15" y="10" width="1" height="1" fill="#FF2D3F" opacity="0.82"/>
<rect x="16" y="10" width="1" height="1" fill="#FF2D3F" opacity="0.36"/>
<rect x="2" y="11" width="1" height="1" fill="#FF2D3F" opacity="0.18"/>
<rect x="3" y="11" width="1" height="1" fill="#FF2D3F" opacity="0.36"/>
<rect x="4" y="11" width="1" height="1" fill="#FF2D3F" opacity="0.58"/>
<rect x="5" y="11" width="1" height="1" fill="#FF2D3F" opacity="0.36"/>
<rect x="6" y="11" width="1" height="1" fill="#FF2D3F" opacity="0.18"/>
<rect x="7" y="11" width="1" height="1" fill="#FF2D3F" opacity="0.18"/>
<rect x="8" y="11" width="1" height="1" fill="#FF2D3F" opacity="0.58"/>
<rect x="9" y="11" width="1" height="1" fill="#FF2D3F" opacity="0.82"/>
<rect x="10" y="11" width="1" height="1" fill="#FF2D3F" opacity="0.82"/>
<rect x="11" y="11" width="1" height="1" fill="#FF2D3F" opacity="0.58"/>
<rect x="12" y="11" width="1" height="1" fill="#FF2D3F" opacity="0.18"/>
<rect x="14" y="11" width="1" height="1" fill="#FF2D3F" opacity="0.36"/>
<rect x="15" y="11" width="1" height="1" fill="#FF2D3F" opacity="0.58"/>
<rect x="2" y="12" width="1" height="1" fill="#FF2D3F" opacity="0.18"/>
<rect x="3" y="12" width="1" height="1" fill="#FF2D3F" opacity="0.18"/>
<rect x="4" y="12" width="1" height="1" fill="#FF2D3F" opacity="0.36"/>
<rect x="5" y="12" width="1" height="1" fill="#FF2D3F" opacity="0.58"/>
<rect x="6" y="12" width="1" height="1" fill="#FF2D3F" opacity="0.36"/>
<rect x="7" y="12" width="1" height="1" fill="#FF2D3F" opacity="0.18"/>
<rect x="8" y="12" width="1" height="1" fill="#FF2D3F" opacity="0.18"/>
<rect x="9" y="12" width="1" height="1" fill="#FF2D3F" opacity="0.82"/>
<rect x="10" y="12" width="1" height="1" fill="#FF7F8A"/>
<rect x="11" y="12" width="1" height="1" fill="#FF2D3F" opacity="0.18"/>
<rect x="12" y="12" width="1" height="1" fill="#FF2D3F" opacity="0.18"/>
<rect x="13" y="12" width="1" height="1" fill="#FF2D3F" opacity="0.36"/>
<rect x="15" y="12" width="1" height="1" fill="#FF2D3F" opacity="0.36"/>
<rect x="16" y="12" width="1" height="1" fill="#FF2D3F" opacity="0.18"/>
<rect x="2" y="13" width="1" height="1" fill="#FF2D3F" opacity="0.18"/>
<rect x="3" y="13" width="1" height="1" fill="#FF2D3F" opacity="0.18"/>
<rect x="5" y="13" width="1" height="1" fill="#FF2D3F" opacity="0.18"/>
<rect x="7" y="13" width="1" height="1" fill="#FF2D3F" opacity="0.36"/>
<rect x="8" y="13" width="1" height="1" fill="#FF2D3F" opacity="0.58"/>
<rect x="9" y="13" width="1" height="1" fill="#FF7F8A"/>
<rect x="10" y="13" width="1" height="1" fill="#FF7F8A"/>
<rect x="11" y="13" width="1" height="1" fill="#FF2D3F" opacity="0.36"/>
<rect x="12" y="13" width="1" height="1" fill="#FF2D3F" opacity="0.36"/>
<rect x="14" y="13" width="1" height="1" fill="#FF2D3F" opacity="0.18"/>
<rect x="17" y="13" width="1" height="1" fill="#FF2D3F" opacity="0.18"/>
<rect x="2" y="14" width="1" height="1" fill="#FF2D3F" opacity="0.36"/>
<rect x="3" y="14" width="1" height="1" fill="#FF2D3F" opacity="0.82"/>
<rect x="4" y="14" width="1" height="1" fill="#FF2D3F" opacity="0.58"/>
<rect x="5" y="14" width="1" height="1" fill="#FF2D3F" opacity="0.58"/>
<rect x="6" y="14" width="1" height="1" fill="#FF2D3F" opacity="0.82"/>
<rect x="7" y="14" width="1" height="1" fill="#FF2D3F" opacity="0.82"/>
<rect x="8" y="14" width="1" height="1" fill="#FF7F8A"/>
<rect x="9" y="14" width="1" height="1" fill="#FF7F8A"/>
<rect x="10" y="14" width="1" height="1" fill="#FF7F8A"/>
<rect x="11" y="14" width="1" height="1" fill="#FF2D3F" opacity="0.82"/>
<rect x="12" y="14" width="1" height="1" fill="#FF2D3F" opacity="0.82"/>
<rect x="13" y="14" width="1" height="1" fill="#FF2D3F" opacity="0.82"/>
<rect x="15" y="14" width="1" height="1" fill="#FF2D3F" opacity="0.58"/>
<rect x="17" y="14" width="1" height="1" fill="#FF2D3F" opacity="0.36"/>
<rect x="2" y="15" width="1" height="1" fill="#FF2D3F" opacity="0.36"/>
<rect x="3" y="15" width="1" height="1" fill="#FF2D3F" opacity="0.82"/>
<rect x="4" y="15" width="1" height="1" fill="#FF7F8A"/>
<rect x="5" y="15" width="1" height="1" fill="#FF7F8A"/>
<rect x="6" y="15" width="1" height="1" fill="#FF7F8A"/>
<rect x="7" y="15" width="1" height="1" fill="#FF7F8A"/>
<rect x="8" y="15" width="1" height="1" fill="#FF2D3F" opacity="0.82"/>
<rect x="9" y="15" width="1" height="1" fill="#FF2D3F" opacity="0.82"/>
<rect x="10" y="15" width="1" height="1" fill="#FF7F8A"/>
<rect x="11" y="15" width="1" height="1" fill="#FF2D3F" opacity="0.82"/>
<rect x="14" y="15" width="1" height="1" fill="#FF7F8A"/>
<rect x="15" y="15" width="1" height="1" fill="#FF7F8A"/>
<rect x="16" y="15" width="1" height="1" fill="#FF2D3F" opacity="0.82"/>
<rect x="17" y="15" width="1" height="1" fill="#FF2D3F" opacity="0.18"/>
<rect x="1" y="16" width="1" height="1" fill="#FF2D3F" opacity="0.18"/>
<rect x="2" y="16" width="1" height="1" fill="#FF2D3F" opacity="0.18"/>
<rect x="3" y="16" width="1" height="1" fill="#FF2D3F" opacity="0.82"/>
<rect x="4" y="16" width="1" height="1" fill="#FF7F8A"/>
<rect x="5" y="16" width="1" height="1" fill="#FF7F8A"/>
<rect x="6" y="16" width="1" height="1" fill="#FF7F8A"/>
<rect x="7" y="16" width="1" height="1" fill="#FF7F8A"/>
<rect x="8" y="16" width="1" height="1" fill="#FF2D3F" opacity="0.82"/>
<rect x="9" y="16" width="1" height="1" fill="#FF2D3F" opacity="0.82"/>
<rect x="10" y="16" width="1" height="1" fill="#FF7F8A"/>
<rect x="11" y="16" width="1" height="1" fill="#FF2D3F" opacity="0.58"/>
<rect x="12" y="16" width="1" height="1" fill="#FF2D3F" opacity="0.82"/>
<rect x="14" y="16" width="1" height="1" fill="#FF7F8A"/>
<rect x="1" y="17" width="1" height="1" fill="#FF2D3F" opacity="0.18"/>
<rect x="3" y="17" width="1" height="1" fill="#FF2D3F" opacity="0.36"/>
<rect x="4" y="17" width="1" height="1" fill="#FF2D3F" opacity="0.82"/>
<rect x="5" y="17" width="1" height="1" fill="#FF7F8A"/>
<rect x="6" y="17" width="1" height="1" fill="#FF7F8A"/>
<rect x="7" y="17" width="1" height="1" fill="#FF7F8A"/>
<rect x="8" y="17" width="1" height="1" fill="#FF2D3F" opacity="0.58"/>
<rect x="9" y="17" width="1" height="1" fill="#FF2D3F" opacity="0.82"/>
<rect x="10" y="17" width="1" height="1" fill="#FF7F8A"/>
<rect x="11" y="17" width="1" height="1" fill="#FF2D3F" opacity="0.58"/>
<rect x="12" y="17" width="1" height="1" fill="#FF2D3F" opacity="0.82"/>
<rect x="13" y="17" width="1" height="1" fill="#FF7F8A"/>
<rect x="14" y="17" width="1" height="1" fill="#FF7F8A"/>
<rect x="3" y="18" width="1" height="1" fill="#FF2D3F" opacity="0.18"/>
<rect x="4" y="18" width="1" height="1" fill="#FF2D3F" opacity="0.58"/>
<rect x="5" y="18" width="1" height="1" fill="#FF2D3F" opacity="0.82"/>
<rect x="6" y="18" width="1" height="1" fill="#FF7F8A"/>
<rect x="7" y="18" width="1" height="1" fill="#FF2D3F" opacity="0.82"/>
<rect x="8" y="18" width="1" height="1" fill="#FF2D3F" opacity="0.18"/>
<rect x="10" y="18" width="1" height="1" fill="#FF2D3F" opacity="0.18"/>
<rect x="12" y="18" width="1" height="1" fill="#FF2D3F" opacity="0.58"/>
<rect x="14" y="18" width="1" height="1" fill="#FF2D3F" opacity="0.82"/>
<rect x="16" y="18" width="1" height="1" fill="#FF2D3F" opacity="0.18"/>
<rect x="3" y="19" width="1" height="1" fill="#FF2D3F" opacity="0.18"/>
<rect x="4" y="19" width="1" height="1" fill="#FF2D3F" opacity="0.36"/>
<rect x="5" y="19" width="1" height="1" fill="#FF2D3F" opacity="0.82"/>
<rect x="6" y="19" width="1" height="1" fill="#FF2D3F" opacity="0.82"/>
<rect x="7" y="19" width="1" height="1" fill="#FF7F8A"/>
<rect x="8" y="19" width="1" height="1" fill="#FF2D3F" opacity="0.58"/>
<rect x="9" y="19" width="1" height="1" fill="#FF2D3F" opacity="0.36"/>
<rect x="10" y="19" width="1" height="1" fill="#FF2D3F" opacity="0.18"/>
<rect x="11" y="19" width="1" height="1" fill="#FF2D3F" opacity="0.36"/>
<rect x="12" y="19" width="1" height="1" fill="#FF2D3F" opacity="0.82"/>
<rect x="13" y="19" width="1" height="1" fill="#FF2D3F" opacity="0.82"/>
<rect x="14" y="19" width="1" height="1" fill="#FF2D3F" opacity="0.82"/>
<rect x="15" y="19" width="1" height="1" fill="#FF2D3F" opacity="0.36"/>
<rect x="3" y="20" width="1" height="1" fill="#FF2D3F" opacity="0.18"/>
<rect x="4" y="20" width="1" height="1" fill="#FF2D3F" opacity="0.18"/>
<rect x="5" y="20" width="1" height="1" fill="#FF2D3F" opacity="0.58"/>
<rect x="6" y="20" width="1" height="1" fill="#FF2D3F" opacity="0.82"/>
<rect x="7" y="20" width="1" height="1" fill="#FF2D3F" opacity="0.82"/>
<rect x="8" y="20" width="1" height="1" fill="#FF7F8A"/>
<rect x="9" y="20" width="1" height="1" fill="#FF2D3F" opacity="0.82"/>
<rect x="10" y="20" width="1" height="1" fill="#FF2D3F" opacity="0.82"/>
<rect x="11" y="20" width="1" height="1" fill="#FF2D3F" opacity="0.82"/>
<rect x="13" y="20" width="1" height="1" fill="#FF2D3F" opacity="0.82"/>
<rect x="3" y="21" width="1" height="1" fill="#FF2D3F" opacity="0.18"/>
<rect x="4" y="21" width="1" height="1" fill="#FF2D3F" opacity="0.18"/>
<rect x="5" y="21" width="1" height="1" fill="#FF2D3F" opacity="0.36"/>
<rect x="6" y="21" width="1" height="1" fill="#FF2D3F" opacity="0.58"/>
<rect x="7" y="21" width="1" height="1" fill="#FF2D3F" opacity="0.36"/>
<rect x="8" y="21" width="1" height="1" fill="#FF2D3F" opacity="0.36"/>
<rect x="9" y="21" width="1" height="1" fill="#FF2D3F" opacity="0.18"/>
<rect x="10" y="21" width="1" height="1" fill="#FF2D3F" opacity="0.18"/>
<rect x="11" y="21" width="1" height="1" fill="#FF2D3F" opacity="0.18"/>
<rect x="12" y="21" width="1" height="1" fill="#FF2D3F" opacity="0.36"/>
<rect x="13" y="21" width="1" height="1" fill="#FF2D3F" opacity="0.36"/>
<rect x="15" y="21" width="1" height="1" fill="#FF2D3F" opacity="0.18"/>
<rect x="16" y="21" width="1" height="1" fill="#FF2D3F" opacity="0.18"/>
<rect x="4" y="22" width="1" height="1" fill="#FF2D3F" opacity="0.18"/>
<rect x="5" y="22" width="1" height="1" fill="#FF2D3F" opacity="0.36"/>
<rect x="6" y="22" width="1" height="1" fill="#FF2D3F" opacity="0.36"/>
<rect x="7" y="22" width="1" height="1" fill="#FF2D3F" opacity="0.36"/>
<rect x="8" y="22" width="1" height="1" fill="#FF2D3F" opacity="0.58"/>
<rect x="9" y="22" width="1" height="1" fill="#FF2D3F" opacity="0.82"/>
<rect x="10" y="22" width="1" height="1" fill="#FF2D3F" opacity="0.58"/>
<rect x="11" y="22" width="1" height="1" fill="#FF2D3F" opacity="0.58"/>
<rect x="12" y="22" width="1" height="1" fill="#FF2D3F" opacity="0.36"/>
<rect x="13" y="22" width="1" height="1" fill="#FF2D3F" opacity="0.36"/>
<rect x="14" y="22" width="1" height="1" fill="#FF2D3F" opacity="0.36"/>
<rect x="15" y="22" width="1" height="1" fill="#FF2D3F" opacity="0.18"/>
<rect x="5" y="23" width="1" height="1" fill="#FF2D3F" opacity="0.18"/>
<rect x="6" y="23" width="1" height="1" fill="#FF2D3F" opacity="0.36"/>
<rect x="7" y="23" width="1" height="1" fill="#FF2D3F" opacity="0.58"/>
<rect x="8" y="23" width="1" height="1" fill="#FF2D3F" opacity="0.36"/>
<rect x="9" y="23" width="1" height="1" fill="#FF2D3F" opacity="0.36"/>
<rect x="10" y="23" width="1" height="1" fill="#FF2D3F" opacity="0.18"/>
<rect x="11" y="23" width="1" height="1" fill="#FF2D3F" opacity="0.36"/>
<rect x="12" y="23" width="1" height="1" fill="#FF2D3F" opacity="0.58"/>
<rect x="13" y="23" width="1" height="1" fill="#FF2D3F" opacity="0.36"/>
<rect x="14" y="23" width="1" height="1" fill="#FF2D3F" opacity="0.18"/>
<rect x="6" y="24" width="1" height="1" fill="#FF2D3F" opacity="0.36"/>
<rect x="7" y="24" width="1" height="1" fill="#FF2D3F" opacity="0.58"/>
<rect x="8" y="24" width="1" height="1" fill="#FF2D3F" opacity="0.58"/>
<rect x="9" y="24" width="1" height="1" fill="#FF2D3F" opacity="0.82"/>
<rect x="10" y="24" width="1" height="1" fill="#FF2D3F" opacity="0.82"/>
<rect x="11" y="24" width="1" height="1" fill="#FF2D3F" opacity="0.58"/>
<rect x="12" y="24" width="1" height="1" fill="#FF2D3F" opacity="0.58"/>
<rect x="14" y="24" width="1" height="1" fill="#FF2D3F" opacity="0.18"/>
<rect x="7" y="25" width="1" height="1" fill="#FF2D3F" opacity="0.58"/>
<rect x="8" y="25" width="1" height="1" fill="#FF2D3F" opacity="0.82"/>
<rect x="9" y="25" width="1" height="1" fill="#FF2D3F" opacity="0.82"/>
<rect x="10" y="25" width="1" height="1" fill="#FF2D3F" opacity="0.82"/>
<rect x="11" y="25" width="1" height="1" fill="#FF2D3F" opacity="0.82"/>
<rect x="12" y="25" width="1" height="1" fill="#FF2D3F" opacity="0.58"/>
<rect x="13" y="25" width="1" height="1" fill="#FF2D3F" opacity="0.18"/>
<rect x="8" y="26" width="1" height="1" fill="#FF2D3F" opacity="0.18"/>
<rect x="9" y="26" width="1" height="1" fill="#FF2D3F" opacity="0.36"/>
<rect x="10" y="26" width="1" height="1" fill="#FF2D3F" opacity="0.36"/>
<rect x="11" y="26" width="1" height="1" fill="#FF2D3F" opacity="0.18"/>
<rect x="18" y="6" width="1" height="1" fill="#FF2D3F" opacity="0.49"/>
<rect x="18" y="7" width="1" height="1" fill="#FF2D3F" opacity="0.14"/>
<rect x="21" y="8" width="1" height="1" fill="#FF2D3F" opacity="0.33"/>
<rect x="17" y="9" width="1" height="1" fill="#FF2D3F" opacity="0.32"/>
<rect x="19" y="11" width="1" height="1" fill="#FF2D3F" opacity="0.25"/>
<rect x="19" y="12" width="1" height="1" fill="#FF2D3F" opacity="0.29"/>
<rect x="18" y="14" width="1" height="1" fill="#FF2D3F" opacity="0.66"/>
<rect x="15" y="16" width="1" height="1" fill="#FF7F8A" opacity="0.80"/>
<rect x="17" y="16" width="1" height="1" fill="#FF2D3F" opacity="0.52"/>
<rect x="24" y="14" width="1" height="1" fill="#FF2D3F" opacity="0.14"/>
<rect x="19" y="17" width="1" height="1" fill="#FF2D3F" opacity="0.49"/>
<rect x="21" y="17" width="1" height="1" fill="#FF2D3F" opacity="0.18"/>
<rect x="20" y="16" width="1" height="1" fill="#FF2D3F" opacity="0.29"/>
<rect x="15" y="20" width="1" height="1" fill="#FF2D3F" opacity="0.52"/>
<rect x="20" y="20" width="1" height="1" fill="#FF2D3F" opacity="0.09"/>
<rect x="18" y="21" width="1" height="1" fill="#FF2D3F" opacity="0.22"/>
</g>
</svg>
