<svg xmlns="http://www.w3.org/2000/svg" viewBox="0 0 370 370" width="370" height="370" shape-rendering="crispEdges" role="img" aria-label="soulkiller">
<rect width="370" height="370" rx="30" fill="#0B0D12"/>
<rect y="0" width="370" height="1" fill="#FFFFFF" opacity="0.035"/>
<rect y="4" width="370" height="1" fill="#FFFFFF" opacity="0.035"/>
<rect y="8" width="370" height="1" fill="#FFFFFF" opacity="0.035"/>
<rect y="12" width="370" height="1" fill="#FFFFFF" opacity="0.035"/>
<rect y="16" width="370" height="1" fill="#FFFFFF" opacity="0.035"/>
<rect y="20" width="370" height="1" fill="#FFFFFF" opacity="0.035"/>
<rect y="24" width="370" height="1" fill="#FFFFFF" opacity="0.035"/>
<rect y="28" width="370" height="1" fill="#FFFFFF" opacity="0.035"/>
<rect y="32" width="370" height="1" fill="#FFFFFF" opacity="0.035"/>
<rect y="36" width="370" height="1" fill="#FFFFFF" opacity="0.035"/>
<rect y="40" width="370" height="1" fill="#FFFFFF" opacity="0.035"/>
<rect y="44" width="370" height="1" fill="#FFFFFF" opacity="0.035"/>
<rect y="48" width="370" height="1" fill="#FFFFFF" opacity="0.035"/>
<rect y="52" width="370" height="1" fill="#FFFFFF" opacity="0.035"/>
<rect y="56" width="370" height="1" fill="#FFFFFF" opacity="0.035"/>
<rect y="60" width="370" height="1" fill="#FFFFFF" opacity="0.035"/>
<rect y="64" width="370" height="1" fill="#FFFFFF" opacity="0.035"/>
<rect y="68" width="370" height="1" fill="#FFFFFF" opacity="0.035"/>
<rect y="72" width="370" height="1" fill="#FFFFFF" opacity="0.035"/>
<rect y="76" width="370" height="1" fill="#FFFFFF" opacity="0.035"/>
<rect y="80" width="370" height="1" fill="#FFFFFF" opacity="0.035"/>
<rect y="84" width="370" height="1" fill="#FFFFFF" opacity="0.035"/>
<rect y="88" width="370" height="1" fill="#FFFFFF" opacity="0.035"/>
<rect y="92" width="370" height="1" fill="#FFFFFF" opacity="0.035"/>
<rect y="96" width="370" height="1" fill="#FFFFFF" opacity="0.035"/>
<rect y="100" width="370" height="1" fill="#FFFFFF" opacity="0.035"/>
<rect y="104" width="370" height="1" fill="#FFFFFF" opacity="0.035"/>
<rect y="108" width="370" height="1" fill="#FFFFFF" opacity="0.035"/>
<rect y="112" width="370" height="1" fill="#FFFFFF" opacity="0.035"/>
<rect y="116" width="370" height="1" fill="#FFFFFF" opacity="0.035"/>
<rect y="120" width="370" height="1" fill="#FFFFFF" opacity="0.035"/>
<rect y="124" width="370" height="1" fill="#FFFFFF" opacity="0.035"/>
<rect y="128" width="370" height="1" fill="#FFFFFF" opacity="0.035"/>
<rect y="132" width="370" height="1" fill="#FFFFFF" opacity="0.035"/>
<rect y="136" width="370" height="1" fill="#FFFFFF" opacity="0.035"/>
<rect y="140" width="370" height="1" fill="#FFFFFF" opacity="0.035"/>
<rect y="144" width="370" height="1" fill="#FFFFFF" opacity="0.035"/>
<rect y="148" width="370" height="1" fill="#FFFFFF" opacity="0.035"/>
<rect y="152" width="370" height="1" fill="#FFFFFF" opacity="0.035"/>
<rect y="156" width="370" height="1" fill="#FFFFFF" opacity="0.035"/>
<rect y="160" width="370" height="1" fill="#FFFFFF" opacity="0.035"/>
<rect y="164" width="370" height="1" fill="#FFFFFF" opacity="0.035"/>
<rect y="168" width="370" height="1" fill="#FFFFFF" opacity="0.035"/>
<rect y="172" width="370" height="1" fill="#FFFFFF" opacity="0.035"/>
<rect y="176" width="370" height="1" fill="#FFFFFF" opacity="0.035"/>
<rect y="180" width="370" height="1" fill="#FFFFFF" opacity="0.035"/>
<rect y="184" width="370" height="1" fill="#FFFFFF" opacity="0.035"/>
<rect y="188" width="370" height="1" fill="#FFFFFF" opacity="0.035"/>
<rect y="192" width="370" height="1" fill="#FFFFFF" opacity="0.035"/>
<rect y="196" width="370" height="1" fill="#FFFFFF" opacity="0.035"/>
<rect y="200" width="370" height="1" fill="#FFFFFF" opacity="0.035"/>
<rect y="204" width="370" height="1" fill="#FFFFFF" opacity="0.035"/>
<rect y="208" width="370" height="1" fill="#FFFFFF" opacity="0.035"/>
<rect y="212" width="370" height="1" fill="#FFFFFF" opacity="0.035"/>
<rect y="216" width="370" height="1" fill="#FFFFFF" opacity="0.035"/>
<rect y="220" width="370" height="1" fill="#FFFFFF" opacity="0.035"/>
<rect y="224" width="370" height="1" fill="#FFFFFF" opacity="0.035"/>
<rect y="228" width="370" height="1" fill="#FFFFFF" opacity="0.035"/>
<rect y="232" width="370" height="1" fill="#FFFFFF" opacity="0.035"/>
<rect y="236" width="370" height="1" fill="#FFFFFF" opacity="0.035"/>
<rect y="240" width="370" height="1" fill="#FFFFFF" opacity="0.035"/>
<rect y="244" width="370" height="1" fill="#FFFFFF" opacity="0.035"/>
<rect y="248" width="370" height="1" fill="#FFFFFF" opacity="0.035"/>
<rect y="252" width="370" height="1" fill="#FFFFFF" opacity="0.035"/>
<rect y="256" width="370" height="1" fill="#FFFFFF" opacity="0.035"/>
<rect y="260" width="370" height="1" fill="#FFFFFF" opacity="0.035"/>
<rect y="264" width="370" height="1" fill="#FFFFFF" opacity="0.035"/>
<rect y="268" width="370" height="1" fill="#FFFFFF" opacity="0.035"/>
<rect y="272" width="370" height="1" fill="#FFFFFF" opacity="0.035"/>
<rect y="276" width="370" height="1" fill="#FFFFFF" opacity="0.035"/>
<rect y="280" width="370" height="1" fill="#FFFFFF" opacity="0.035"/>
<rect y="284" width="370" height="1" fill="#FFFFFF" opacity="0.035"/>
<rect y="288" width="370" height="1" fill="#FFFFFF" opacity="0.035"/>
<rect y="292" width="370" height="1" fill="#FFFFFF" opacity="0.035"/>
<rect y="296" width="370" height="1" fill="#FFFFFF" opacity="0.035"/>
<rect y="300" width="370" height="1" fill="#FFFFFF" opacity="0.035"/>
<rect y="304" width="370" height="1" fill="#FFFFFF" opacity="0.035"/>
<rect y="308" width="370" height="1" fill="#FFFFFF" opacity="0.035"/>
<rect y="312" width="370" height="1" fill="#FFFFFF" opacity="0.035"/>
<rect y="316" width="370" height="1" fill="#FFFFFF" opacity="0.035"/>
<rect y="320" width="370" height="1" fill="#FFFFFF" opacity="0.035"/>
<rect y="324" width="370" height="1" fill="#FFFFFF" opacity="0.035"/>
<rect y="328" width="370" height="1" fill="#FFFFFF" opacity="0.035"/>
<rect y="332" width="370" height="1" fill="#FFFFFF" opacity="0.035"/>
<rect y="336" width="370" height="1" fill="#FFFFFF" opacity="0.035"/>
<rect y="340" width="370" height="1" fill="#FFFFFF" opacity="0.035"/>
<rect y="344" width="370" height="1" fill="#FFFFFF" opacity="0.035"/>
<rect y="348" width="370" height="1" fill="#FFFFFF" opacity="0.035"/>
<rect y="352" width="370" height="1" fill="#FFFFFF" opacity="0.035"/>
<rect y="356" width="370" height="1" fill="#FFFFFF" opacity="0.035"/>
<rect y="360" width="370" height="1" fill="#FFFFFF" opacity="0.035"/>
<rect y="364" width="370" height="1" fill="#FFFFFF" opacity="0.035"/>
<rect y="368" width="370" height="1" fill="#FFFFFF" opacity="0.035"/>
<rect x="110" y="80" width="9" height="9" fill="#6DC3E2"/>
<rect x="120" y="80" width="9" height="9" fill="#73BCDE"/>
<rect x="130" y="80" width="9" height="9" fill="#7AB5DA"/>
<rect x="140" y="80" width="9" height="9" fill="#81AED6"/>
<rect x="150" y="80" width="9" height="9" fill="#87A8D2"/>
<rect x="160" y="80" width="9" height="9" fill="#8EA1CE"/>
<rect x="90" y="90" width="9" height="9" fill="#5FD0EA"/>
<rect x="100" y="90" width="9" height="9" fill="#66C9E6"/>
<rect x="110" y="90" width="9" height="9" fill="#6DC3E2"/>
<rect x="120" y="90" width="9" height="9" fill="#73BCDE"/>
<rect x="130" y="90" width="9" height="9" fill="#7AB5DA"/>
<rect x="140" y="90" width="9" height="9" fill="#81AED6"/>
<rect x="150" y="90" width="9" height="9" fill="#87A8D2"/>
<rect x="160" y="90" width="9" height="9" fill="#8EA1CE"/>
<rect x="170" y="90" width="9" height="9" fill="#959ACA"/>
<rect x="180" y="90" width="9" height="9" fill="#9B93C6"/>
<rect x="80" y="100" width="9" height="9" fill="#59D7EF"/>
<rect x="90" y="100" width="9" height="9" fill="#5FD0EA"/>
<rect x="100" y="100" width="9" height="9" fill="#66C9E6"/>
<rect x="110" y="100" width="9" height="9" fill="#6DC3E2"/>
<rect x="120" y="100" width="9" height="9" fill="#73BCDE"/>
<rect x="130" y="100" width="9" height="9" fill="#7AB5DA"/>
<rect x="140" y="100" width="9" height="9" fill="#81AED6"/>
<rect x="150" y="100" width="9" height="9" fill="#87A8D2"/>
<rect x="160" y="100" width="9" height="9" fill="#8EA1CE"/>
<rect x="170" y="100" width="9" height="9" fill="#959ACA"/>
<rect x="180" y="100" width="9" height="9" fill="#9B93C6"/>
<rect x="190" y="100" width="9" height="9" fill="#A28DC1"/>
<rect x="70" y="110" width="9" height="9" fill="#52DEF3"/>
<rect x="80" y="110" width="9" height="9" fill="#59D7EF"/>
<rect x="90" y="110" width="9" height="9" fill="#5FD0EA"/>
<rect x="100" y="110" width="9" height="9" fill="#66C9E6"/>
<rect x="110" y="110" width="9" height="9" fill="#6DC3E2"/>
<rect x="120" y="110" width="9" height="9" fill="#73BCDE"/>
<rect x="130" y="110" width="9" height="9" fill="#7AB5DA"/>
<rect x="140" y="110" width="9" height="9" fill="#81AED6"/>
<rect x="150" y="110" width="9" height="9" fill="#87A8D2"/>
<rect x="160" y="110" width="9" height="9" fill="#8EA1CE"/>
<rect x="170" y="110" width="9" height="9" fill="#959ACA"/>
<rect x="180" y="110" width="9" height="9" fill="#9B93C6"/>
<rect x="190" y="110" width="9" height="9" fill="#A28DC1"/>
<rect x="60" y="120" width="9" height="9" fill="#4BE4F7"/>
<rect x="70" y="120" width="9" height="9" fill="#52DEF3"/>
<rect x="80" y="120" width="9" height="9" fill="#59D7EF"/>
<rect x="90" y="120" width="9" height="9" fill="#5FD0EA"/>
<rect x="100" y="120" width="9" height="9" fill="#66C9E6"/>
<rect x="110" y="120" width="9" height="9" fill="#6DC3E2"/>
<rect x="120" y="120" width="9" height="9" fill="#73BCDE"/>
<rect x="130" y="120" width="9" height="9" fill="#7AB5DA"/>
<rect x="140" y="120" width="9" height="9" fill="#81AED6"/>
<rect x="150" y="120" width="9" height="9" fill="#87A8D2"/>
<rect x="160" y="120" width="9" height="9" fill="#8EA1CE"/>
<rect x="180" y="120" width="9" height="9" fill="#9B93C6"/>
<rect x="200" y="120" width="9" height="9" fill="#A886BD"/>
<rect x="210" y="120" width="9" height="9" fill="#AF7FB9"/>
<rect x="60" y="130" width="9" height="9" fill="#4BE4F7"/>
<rect x="70" y="130" width="9" height="9" fill="#52DEF3"/>
<rect x="80" y="130" width="9" height="9" fill="#59D7EF"/>
<rect x="90" y="130" width="9" height="9" fill="#5FD0EA"/>
<rect x="100" y="130" width="9" height="9" fill="#66C9E6"/>
<rect x="110" y="130" width="9" height="9" fill="#6DC3E2"/>
<rect x="120" y="130" width="9" height="9" fill="#73BCDE"/>
<rect x="130" y="130" width="9" height="9" fill="#7AB5DA"/>
<rect x="140" y="130" width="9" height="9" fill="#81AED6"/>
<rect x="150" y="130" width="9" height="9" fill="#87A8D2"/>
<rect x="160" y="130" width="9" height="9" fill="#8EA1CE"/>
<rect x="190" y="130" width="9" height="9" fill="#A28DC1"/>
<rect x="200" y="130" width="9" height="9" fill="#A886BD"/>
<rect x="50" y="140" width="9" height="9" fill="#45EBFB"/>
<rect x="60" y="140" width="9" height="9" fill="#4BE4F7"/>
<rect x="70" y="140" width="9" height="9" fill="#52DEF3"/>
<rect x="80" y="140" width="9" height="9" fill="#59D7EF"/>
<rect x="90" y="140" width="9" height="9" fill="#5FD0EA"/>
<rect x="100" y="140" width="9" height="9" fill="#66C9E6"/>
<rect x="110" y="140" width="9" height="9" fill="#6DC3E2"/>
<rect x="120" y="140" width="9" height="9" fill="#73BCDE"/>
<rect x="130" y="140" width="9" height="9" fill="#7AB5DA"/>
<rect x="140" y="140" width="9" height="9" fill="#81AED6"/>
<rect x="150" y="140" width="9" height="9" fill="#87A8D2"/>
<rect x="160" y="140" width="9" height="9" fill="#8EA1CE"/>
<rect x="170" y="140" width="9" height="9" fill="#959ACA"/>
<rect x="180" y="140" width="9" height="9" fill="#9B93C6"/>
<rect x="200" y="140" width="9" height="9" fill="#A886BD"/>
<rect x="210" y="140" width="9" height="9" fill="#AF7FB9"/>
<rect x="50" y="150" width="9" height="9" fill="#45EBFB"/>
<rect x="60" y="150" width="9" height="9" fill="#4BE4F7"/>
<rect x="70" y="150" width="9" height="9" fill="#52DEF3"/>
<rect x="80" y="150" width="9" height="9" fill="#59D7EF"/>
<rect x="90" y="150" width="9" height="9" fill="#5FD0EA"/>
<rect x="100" y="150" width="9" height="9" fill="#66C9E6"/>
<rect x="110" y="150" width="9" height="9" fill="#6DC3E2"/>
<rect x="120" y="150" width="9" height="9" fill="#73BCDE"/>
<rect x="130" y="150" width="9" height="9" fill="#7AB5DA"/>
<rect x="140" y="150" width="9" height="9" fill="#81AED6"/>
<rect x="150" y="150" width="9" height="9" fill="#87A8D2"/>
<rect x="160" y="150" width="9" height="9" fill="#8EA1CE"/>
<rect x="170" y="150" width="9" height="9" fill="#959ACA"/>
<rect x="190" y="150" width="9" height="9" fill="#A28DC1"/>
<rect x="220" y="150" width="9" height="9" fill="#B678B5"/>
<rect x="50" y="160" width="9" height="9" fill="#45EBFB"/>
<rect x="60" y="160" width="9" height="9" fill="#4BE4F7"/>
<rect x="70" y="160" width="9" height="9" fill="#52DEF3"/>
<rect x="110" y="160" width="9" height="9" fill="#6DC3E2"/>
<rect x="120" y="160" width="9" height="9" fill="#73BCDE"/>
<rect x="130" y="160" width="9" height="9" fill="#7AB5DA"/>
<rect x="140" y="160" width="9" height="9" fill="#81AED6"/>
<rect x="150" y="160" width="9" height="9" fill="#87A8D2"/>
<rect x="160" y="160" width="9" height="9" fill="#8EA1CE"/>
<rect x="210" y="160" width="9" height="9" fill="#AF7FB9"/>
<rect x="50" y="170" width="9" height="9" fill="#45EBFB"/>
<rect x="60" y="170" width="9" height="9" fill="#4BE4F7"/>
<rect x="70" y="170" width="9" height="9" fill="#52DEF3"/>
<rect x="110" y="170" width="9" height="9" fill="#6DC3E2"/>
<rect x="120" y="170" width="9" height="9" fill="#73BCDE"/>
<rect x="130" y="170" width="9" height="9" fill="#7AB5DA"/>
<rect x="140" y="170" width="9" height="9" fill="#81AED6"/>
<rect x="150" y="170" width="9" height="9" fill="#87A8D2"/>
<rect x="160" y="170" width="9" height="9" fill="#8EA1CE"/>
<rect x="200" y="170" width="9" height="9" fill="#A886BD"/>
<rect x="210" y="170" width="9" height="9" fill="#AF7FB9"/>
<rect x="220" y="170" width="9" height="9" fill="#B678B5"/>
<rect x="50" y="180" width="9" height="9" fill="#45EBFB"/>
<rect x="60" y="180" width="9" height="9" fill="#4BE4F7"/>
<rect x="70" y="180" width="9" height="9" fill="#52DEF3"/>
<rect x="80" y="180" width="9" height="9" fill="#59D7EF"/>
<rect x="90" y="180" width="9" height="9" fill="#5FD0EA"/>
<rect x="100" y="180" width="9" height="9" fill="#66C9E6"/>
<rect x="110" y="180" width="9" height="9" fill="#6DC3E2"/>
<rect x="120" y="180" width="9" height="9" fill="#73BCDE"/>
<rect x="130" y="180" width="9" height="9" fill="#7AB5DA"/>
<rect x="140" y="180" width="9" height="9" fill="#81AED6"/>
<rect x="150" y="180" width="9" height="9" fill="#87A8D2"/>
<rect x="160" y="180" width="9" height="9" fill="#8EA1CE"/>
<rect x="170" y="180" width="9" height="9" fill="#959ACA"/>
<rect x="180" y="180" width="9" height="9" fill="#9B93C6"/>
<rect x="190" y="180" width="9" height="9" fill="#A28DC1"/>
<rect x="200" y="180" width="9" height="9" fill="#A886BD"/>
<rect x="50" y="190" width="9" height="9" fill="#45EBFB"/>
<rect x="60" y="190" width="9" height="9" fill="#4BE4F7"/>
<rect x="70" y="190" width="9" height="9" fill="#52DEF3"/>
<rect x="80" y="190" width="9" height="9" fill="#59D7EF"/>
<rect x="90" y="190" width="9" height="9" fill="#5FD0EA"/>
<rect x="100" y="190" width="9" height="9" fill="#66C9E6"/>
<rect x="110" y="190" width="9" height="9" fill="#6DC3E2"/>
<rect x="120" y="190" width="9" height="9" fill="#73BCDE"/>
<rect x="130" y="190" width="9" height="9" fill="#7AB5DA"/>
<rect x="140" y="190" width="9" height="9" fill="#81AED6"/>
<rect x="150" y="190" width="9" height="9" fill="#87A8D2"/>
<rect x="160" y="190" width="9" height="9" fill="#8EA1CE"/>
<rect x="170" y="190" width="9" height="9" fill="#959ACA"/>
<rect x="180" y="190" width="9" height="9" fill="#9B93C6"/>
<rect x="190" y="190" width="9" height="9" fill="#A28DC1"/>
<rect x="50" y="200" width="9" height="9" fill="#45EBFB"/>
<rect x="60" y="200" width="9" height="9" fill="#4BE4F7"/>
<rect x="70" y="200" width="9" height="9" fill="#52DEF3"/>
<rect x="80" y="200" width="9" height="9" fill="#59D7EF"/>
<rect x="90" y="200" width="9" height="9" fill="#5FD0EA"/>
<rect x="100" y="200" width="9" height="9" fill="#66C9E6"/>
<rect x="110" y="200" width="9" height="9" fill="#6DC3E2"/>
<rect x="120" y="200" width="9" height="9" fill="#73BCDE"/>
<rect x="130" y="200" width="9" height="9" fill="#7AB5DA"/>
<rect x="150" y="200" width="9" height="9" fill="#87A8D2"/>
<rect x="160" y="200" width="9" height="9" fill="#8EA1CE"/>
<rect x="170" y="200" width="9" height="9" fill="#959ACA"/>
<rect x="180" y="200" width="9" height="9" fill="#9B93C6"/>
<rect x="220" y="200" width="9" height="9" fill="#B678B5"/>
<rect x="60" y="210" width="9" height="9" fill="#4BE4F7"/>
<rect x="70" y="210" width="9" height="9" fill="#52DEF3"/>
<rect x="80" y="210" width="9" height="9" fill="#59D7EF"/>
<rect x="90" y="210" width="9" height="9" fill="#5FD0EA"/>
<rect x="100" y="210" width="9" height="9" fill="#66C9E6"/>
<rect x="110" y="210" width="9" height="9" fill="#6DC3E2"/>
<rect x="120" y="210" width="9" height="9" fill="#73BCDE"/>
<rect x="130" y="210" width="9" height="9" fill="#7AB5DA"/>
<rect x="150" y="210" width="9" height="9" fill="#87A8D2"/>
<rect x="160" y="210" width="9" height="9" fill="#8EA1CE"/>
<rect x="170" y="210" width="9" height="9" fill="#959ACA"/>
<rect x="180" y="210" width="9" height="9" fill="#9B93C6"/>
<rect x="190" y="210" width="9" height="9" fill="#A28DC1"/>
<rect x="200" y="210" width="9" height="9" fill="#A886BD"/>
<rect x="210" y="210" width="9" height="9" fill="#AF7FB9"/>
<rect x="60" y="220" width="9" height="9" fill="#4BE4F7"/>
<rect x="70" y="220" width="9" height="9" fill="#52DEF3"/>
<rect x="80" y="220" width="9" height="9" fill="#59D7EF"/>
<rect x="90" y="220" width="9" height="9" fill="#5FD0EA"/>
<rect x="100" y="220" width="9" height="9" fill="#66C9E6"/>
<rect x="110" y="220" width="9" height="9" fill="#6DC3E2"/>
<rect x="120" y="220" width="9" height="9" fill="#73BCDE"/>
<rect x="160" y="220" width="9" height="9" fill="#8EA1CE"/>
<rect x="170" y="220" width="9" height="9" fill="#959ACA"/>
<rect x="180" y="220" width="9" height="9" fill="#9B93C6"/>
<rect x="190" y="220" width="9" height="9" fill="#A28DC1"/>
<rect x="200" y="220" width="9" height="9" fill="#A886BD"/>
<rect x="70" y="230" width="9" height="9" fill="#52DEF3"/>
<rect x="80" y="230" width="9" height="9" fill="#59D7EF"/>
<rect x="90" y="230" width="9" height="9" fill="#5FD0EA"/>
<rect x="100" y="230" width="9" height="9" fill="#66C9E6"/>
<rect x="110" y="230" width="9" height="9" fill="#6DC3E2"/>
<rect x="120" y="230" width="9" height="9" fill="#73BCDE"/>
<rect x="130" y="230" width="9" height="9" fill="#7AB5DA"/>
<rect x="140" y="230" width="9" height="9" fill="#81AED6"/>
<rect x="150" y="230" width="9" height="9" fill="#87A8D2"/>
<rect x="160" y="230" width="9" height="9" fill="#8EA1CE"/>
<rect x="170" y="230" width="9" height="9" fill="#959ACA"/>
<rect x="70" y="240" width="9" height="9" fill="#52DEF3"/>
<rect x="80" y="240" width="9" height="9" fill="#59D7EF"/>
<rect x="90" y="240" width="9" height="9" fill="#5FD0EA"/>
<rect x="200" y="240" width="9" height="9" fill="#A886BD"/>
<rect x="80" y="250" width="9" height="9" fill="#59D7EF"/>
<rect x="90" y="250" width="9" height="9" fill="#5FD0EA"/>
<rect x="100" y="250" width="9" height="9" fill="#66C9E6"/>
<rect x="180" y="250" width="9" height="9" fill="#9B93C6"/>
<rect x="200" y="250" width="9" height="9" fill="#A886BD"/>
<rect x="90" y="260" width="9" height="9" fill="#5FD0EA"/>
<rect x="100" y="260" width="9" height="9" fill="#66C9E6"/>
<rect x="110" y="260" width="9" height="9" fill="#6DC3E2"/>
<rect x="120" y="260" width="9" height="9" fill="#73BCDE"/>
<rect x="130" y="260" width="9" height="9" fill="#7AB5DA"/>
<rect x="140" y="260" width="9" height="9" fill="#81AED6"/>
<rect x="150" y="260" width="9" height="9" fill="#87A8D2"/>
<rect x="160" y="260" width="9" height="9" fill="#8EA1CE"/>
<rect x="170" y="260" width="9" height="9" fill="#959ACA"/>
<rect x="100" y="270" width="9" height="9" fill="#66C9E6"/>
<rect x="110" y="270" width="9" height="9" fill="#6DC3E2"/>
<rect x="120" y="270" width="9" height="9" fill="#73BCDE"/>
<rect x="130" y="270" width="9" height="9" fill="#7AB5DA"/>
<rect x="140" y="270" width="9" height="9" fill="#81AED6"/>
<rect x="150" y="270" width="9" height="9" fill="#87A8D2"/>
<rect x="160" y="270" width="9" height="9" fill="#8EA1CE"/>
<rect x="180" y="270" width="9" height="9" fill="#9B93C6"/>
<rect x="110" y="280" width="9" height="9" fill="#6DC3E2"/>
<rect x="120" y="280" width="9" height="9" fill="#73BCDE"/>
<rect x="130" y="280" width="9" height="9" fill="#7AB5DA"/>
<rect x="140" y="280" width="9" height="9" fill="#81AED6"/>
<rect x="150" y="280" width="9" height="9" fill="#87A8D2"/>
<rect x="160" y="280" width="9" height="9" fill="#8EA1CE"/>
<rect x="170" y="280" width="9" height="9" fill="#959ACA"/>
<rect x="80" y="160" width="9" height="9" fill="#F4FBFF"/>
<rect x="90" y="160" width="9" height="9" fill="#F4FBFF"/>
<rect x="100" y="160" width="9" height="9" fill="#F4FBFF"/>
<rect x="170" y="160" width="9" height="9" fill="#F4FBFF"/>
<rect x="180" y="160" width="9" height="9" fill="#F4FBFF"/>
<rect x="190" y="160" width="9" height="9" fill="#F4FBFF"/>
<rect x="80" y="170" width="9" height="9" fill="#F4FBFF"/>
<rect x="90" y="170" width="9" height="9" fill="#F4FBFF"/>
<rect x="100" y="170" width="9" height="9" fill="#F4FBFF"/>
<rect x="170" y="170" width="9" height="9" fill="#F4FBFF"/>
<rect x="180" y="170" width="9" height="9" fill="#F4FBFF"/>
<rect x="190" y="170" width="9" height="9" fill="#F4FBFF"/>
<rect x="260" y="90" width="9" height="9" fill="#D05DA5" opacity="0.50"/>
<rect x="200" y="110" width="9" height="9" fill="#A886BD" opacity="0.75"/>
<rect x="230" y="110" width="9" height="9" fill="#BC72B1" opacity="0.67"/>
<rect x="220" y="130" width="9" height="9" fill="#B678B5" opacity="0.67"/>
<rect x="220" y="140" width="9" height="9" fill="#B678B5" opacity="0.75"/>
<rect x="280" y="120" width="9" height="9" fill="#DE509D" opacity="0.50"/>
<rect x="260" y="130" width="9" height="9" fill="#D05DA5" opacity="0.50"/>
<rect x="240" y="150" width="9" height="9" fill="#C36BAD" opacity="0.75"/>
<rect x="270" y="140" width="9" height="9" fill="#D757A1" opacity="0.42"/>
<rect x="230" y="180" width="9" height="9" fill="#BC72B1" opacity="0.83"/>
<rect x="270" y="160" width="9" height="9" fill="#D757A1" opacity="0.42"/>
<rect x="300" y="150" width="9" height="9" fill="#EB4294" opacity="0.33"/>
<rect x="210" y="200" width="9" height="9" fill="#AF7FB9" opacity="0.83"/>
<rect x="260" y="180" width="9" height="9" fill="#D05DA5" opacity="0.58"/>
<rect x="250" y="210" width="9" height="9" fill="#CA64A9" opacity="0.67"/>
<rect x="200" y="230" width="9" height="9" fill="#A886BD" opacity="0.83"/>
<rect x="250" y="220" width="9" height="9" fill="#CA64A9" opacity="0.58"/>
<rect x="210" y="250" width="9" height="9" fill="#AF7FB9" opacity="0.83"/>
<rect x="200" y="270" width="9" height="9" fill="#A886BD" opacity="0.75"/>
</svg>
